<svg width="101" height="100" viewBox="0 0 101 100" fill="none" xmlns="http://www.w3.org/2000/svg">
<path d="M67.1654 87.5V20.8333C67.1654 18.6232 66.2874 16.5036 64.7246 14.9408C63.1618 13.378 61.0422 12.5 58.832 12.5H42.1654C39.9552 12.5 37.8356 13.378 36.2728 14.9408C34.71 16.5036 33.832 18.6232 33.832 20.8333V87.5M17.1654 29.1667H83.832C88.4344 29.1667 92.1654 32.8976 92.1654 37.5V79.1667C92.1654 83.769 88.4344 87.5 83.832 87.5H17.1654C12.563 87.5 8.83203 83.769 8.83203 79.1667V37.5C8.83203 32.8976 12.563 29.1667 17.1654 29.1667Z" stroke="#F2A413" stroke-width="4" stroke-linecap="round" stroke-linejoin="round"/>
</svg>
