<svg width="101" height="100" viewBox="0 0 101 100" fill="none" xmlns="http://www.w3.org/2000/svg">
<path d="M67.168 16.6663H75.5013C77.7114 16.6663 79.8311 17.5443 81.3939 19.1071C82.9567 20.6699 83.8346 22.7895 83.8346 24.9997V83.333C83.8346 85.5431 82.9567 87.6628 81.3939 89.2256C79.8311 90.7884 77.7114 91.6663 75.5013 91.6663H25.5013C23.2912 91.6663 21.1715 90.7884 19.6087 89.2256C18.0459 87.6628 17.168 85.5431 17.168 83.333V24.9997C17.168 22.7895 18.0459 20.6699 19.6087 19.1071C21.1715 17.5443 23.2912 16.6663 25.5013 16.6663H33.8346M38.0013 8.33301H63.0013C65.3025 8.33301 67.168 10.1985 67.168 12.4997V20.833C67.168 23.1342 65.3025 24.9997 63.0013 24.9997H38.0013C35.7001 24.9997 33.8346 23.1342 33.8346 20.833V12.4997C33.8346 10.1985 35.7001 8.33301 38.0013 8.33301Z" stroke="#F2A413" stroke-width="4" stroke-linecap="round" stroke-linejoin="round"/>
</svg>
