<svg width="1435" height="81" viewBox="0 0 1435 81" fill="none" xmlns="http://www.w3.org/2000/svg">
<path d="M744.296 97.962C536.835 97.3779 349.023 94.8972 213.084 91.359C145.113 89.5899 90.1151 90.5566 52.1142 85.3638C33.1122 84.2674 18.3683 83.1318 8.37999 81.9702C3.38303 81.3891 -0.408392 80.8036 -2.94286 80.2166C-4.21379 79.9223 -5.14215 79.6325 -5.74299 79.3552C-6.04504 79.2158 -6.23597 79.0918 -6.34402 78.9922C-6.38968 78.9501 -6.41073 78.9204 -6.4208 78.9041C-6.41018 78.8804 -6.38279 78.83 -6.31079 78.7511C-6.18853 78.6172 -5.98431 78.4501 -5.67687 78.2539C-5.06434 77.8628 -4.12552 77.4057 -2.85083 76.8878C-0.306927 75.8542 3.49449 74.6118 8.49867 73.1922C18.5024 70.3543 33.2644 66.824 52.2843 62.8603C90.3221 54.9335 145.364 45.2774 213.373 35.9583C349.392 17.3201 537.266 0.0312146 744.703 0.615207C952.14 1.19921 1139.87 19.5455 1275.73 38.9492C1343.66 48.651 1398.61 58.6168 1436.59 66.7576C1455.57 70.8283 1470.3 74.4416 1480.28 77.3357C1485.28 78.7835 1489.07 80.0473 1491.6 81.0952C1492.87 81.6202 1493.81 82.0827 1494.42 82.4771C1494.72 82.6751 1494.93 82.8434 1495.05 82.9779C1495.12 83.0588 1495.15 83.1094 1495.16 83.1325C1495.15 83.1488 1495.12 83.1775 1495.08 83.2192C1494.97 83.3182 1494.78 83.4411 1494.47 83.5788C1493.87 83.8528 1492.94 84.1372 1491.67 84.4245C1489.13 84.9971 1485.33 85.5613 1480.33 86.1142C1470.33 87.2195 1455.58 88.2721 1436.57 89.2615C1398.55 91.2403 1343.54 92.9639 1275.55 94.3502C1139.59 97.1229 951.758 98.5461 744.296 97.962Z" fill="#F2A413" stroke="black"/>
</svg>
